<svg width="124" height="124" viewBox="0 0 124 124" fill="none" xmlns="http://www.w3.org/2000/svg">
<g clip-path="url(#clip0_343_14882)">
<path d="M87.8333 109.657V43.6687C93.5476 40.5997 96.4823 34.565 96.4823 27.6313C96.4823 17.949 88.8718 10.0078 79.329 9.4705C75.361 3.9525 67.8538 0 60.0108 0C54.994 0 50.8141 1.66367 46.6705 4.98067C39.9951 2.80033 32.4776 4.24183 27.063 9.07267C15.9288 7.30567 5.16663 15.5 5.16663 27.1612C5.16663 34.3738 9.39813 40.4963 15.5 43.4362V109.657C15.5 113.088 13.764 115.873 10.3333 115.873V124H93V115.873C89.5693 115.873 87.8333 113.088 87.8333 109.657V109.657ZM41.3333 108.5H31V42.7852C34.472 44.9655 38.8326 44.8828 41.3333 44.1647V108.5ZM78.2956 37.6805C75.0561 37.6805 72.1783 36.1512 70.3441 33.7745L68.014 35.4072C60.1503 41.4935 67.4301 52.4727 67.9623 57.7478C68.4893 62.7957 65.3531 66.5932 60.4293 66.5932C55.6243 66.5932 52.8085 62.5322 53.1908 57.7478C53.5938 52.6948 61.2611 42.6715 52.762 34.8182L49.5431 31.8835C47.3473 34.4513 44.0871 36.084 40.4446 36.084C37.3188 36.084 34.4771 34.8905 32.3433 32.9272C30.5143 35.4433 27.5538 37.0812 24.2058 37.0812C10.1731 37.0812 9.65129 16.988 24.2058 16.988C26.2621 16.988 28.1841 17.608 29.7703 18.6723C31.7543 14.7922 35.7791 12.1313 40.4395 12.1313C43.493 12.1313 46.283 13.2783 48.3961 15.159C50.9485 10.9533 55.5778 8.1375 60.8581 8.1375C67.3423 8.1375 72.8448 12.3742 74.7306 18.2383C75.8311 17.8147 77.0298 17.5873 78.2905 17.5873C83.8291 17.5873 88.3293 22.0875 88.3293 27.6313C88.3293 33.1752 83.8395 37.6805 78.2956 37.6805V37.6805ZM118.833 64.3353C118.833 77.4535 109.58 94.0437 93 100.311V89.1508C109.296 79.6958 113.506 56.8333 101.024 56.8333H93V46.5H102.879C113.956 46.5 118.833 54.4257 118.833 64.3353V64.3353Z" fill="#E7C46D"/>
</g>
<defs>
<clipPath id="clip0_343_14882">
<rect width="124" height="124" fill="white"/>
</clipPath>
</defs>
</svg>
